<?xml version="1.0" standalone="no"?>
<!DOCTYPE svg PUBLIC "-//W3C//DTD SVG 20010904//EN"
 "http://www.w3.org/TR/2001/REC-SVG-20010904/DTD/svg10.dtd">
<svg version="1.0" xmlns="http://www.w3.org/2000/svg"
 width="512.000000pt" height="512.000000pt" viewBox="0 0 512.000000 512.000000"
 preserveAspectRatio="xMidYMid meet">

<g transform="translate(0.000000,512.000000) scale(0.100000,-0.100000)"
fill="#000000" stroke="none">
<path d="M2065 4665 c-102 -18 -179 -59 -256 -135 -103 -102 -149 -221 -149
-386 0 -166 60 -328 164 -442 61 -66 658 -580 698 -600 17 -8 40 -11 58 -7 34
7 632 515 718 609 30 33 70 94 92 141 147 303 55 652 -205 779 -34 16 -97 35
-148 44 -80 13 -97 13 -170 -1 -99 -20 -185 -61 -255 -122 l-52 -47 -51 46
c-64 57 -154 102 -244 121 -83 17 -107 17 -200 0z m220 -229 c28 -13 91 -61
142 -109 85 -80 96 -87 133 -87 37 0 48 7 127 81 131 123 224 158 338 124 161
-46 243 -178 218 -350 -11 -78 -54 -181 -100 -242 -15 -20 -153 -144 -305
-275 l-278 -239 -278 239 c-152 131 -290 254 -306 273 -39 46 -83 140 -97 208
-35 171 40 337 175 385 66 23 172 20 231 -8z" fill="#3D5928"/>
<path d="M1099 2840 l-30 -30 4 -437 c3 -408 5 -443 25 -513 50 -179 108 -303
200 -425 57 -77 175 -198 237 -243 l30 -21 -628 -1 c-701 0 -685 1 -713 -65
-12 -30 -13 -50 -5 -110 25 -177 124 -321 277 -402 127 -67 -15 -63 2066 -63
2077 0 1936 -4 2061 62 153 82 253 225 277 400 12 84 2 127 -37 158 -25 20
-39 20 -667 20 l-641 1 30 25 c117 100 152 134 212 209 l67 85 73 0 c285 0
559 168 678 415 95 197 99 402 10 582 -89 180 -272 283 -506 283 -63 0 -69 2
-69 21 0 11 -13 34 -29 50 l-29 29 -1432 0 -1432 0 -29 -30z m2738 -512 c-3
-312 -6 -351 -26 -427 -91 -351 -357 -612 -717 -703 -86 -22 -105 -23 -534
-23 -428 0 -448 1 -533 22 -360 92 -619 344 -718 698 -20 74 -22 106 -26 428
l-5 347 1282 0 1282 0 -5 -342z m444 203 c193 -73 253 -291 143 -518 -42 -84
-128 -183 -200 -229 -62 -39 -160 -74 -210 -74 -33 0 -36 2 -30 23 60 204 59
193 64 521 l4 309 86 -6 c53 -3 109 -13 143 -26z m389 -1575 c0 -46 -89 -141
-165 -177 l-60 -29 -1885 0 -1885 0 -60 29 c-73 35 -165 129 -165 168 0 11
404 13 2110 13 1161 0 2110 -2 2110 -4z" fill="#3D5928"/>
</g>
</svg>
