<?xml version="1.0" standalone="no"?>
<!DOCTYPE svg PUBLIC "-//W3C//DTD SVG 20010904//EN"
 "http://www.w3.org/TR/2001/REC-SVG-20010904/DTD/svg10.dtd">
<svg version="1.0" xmlns="http://www.w3.org/2000/svg"
 width="500.000000pt" height="200.000000pt" viewBox="0 0 1000.000000 200.000000"
 preserveAspectRatio="xMidYMid meet">

<g transform="translate(0.000000,200.000000) scale(0.100000,-0.100000)"
fill="#000000" stroke="none">
<path d="M845 1979 c-433 -56 -709 -286 -806 -671 -27 -106 -37 -386 -19 -510
33 -228 128 -410 295 -566 114 -107 251 -170 450 -209 112 -21 453 -25 560 -5
281 52 484 199 603 437 31 63 79 202 71 208 -5 6 -519 149 -537 151 -8 1 -21
-22 -31 -54 -28 -89 -81 -178 -133 -225 -69 -62 -128 -80 -263 -80 -97 0 -116
3 -165 26 -111 52 -165 120 -201 255 -18 65 -22 109 -22 249 -1 252 30 355
140 455 65 59 142 90 243 97 171 12 316 -74 377 -223 12 -30 23 -44 33 -41 8
2 132 28 275 57 143 30 262 55 264 56 2 2 -6 30 -19 63 -40 107 -109 211 -199
302 -71 70 -102 93 -181 132 -105 51 -209 80 -345 96 -105 13 -290 12 -390 0z" fill="#A65A2E"/>
<path d="M4595 1976 c-96 -18 -182 -64 -238 -126 -63 -70 -87 -148 -94 -302
l-6 -118 -108 0 -109 0 0 -195 0 -195 110 0 110 0 0 -505 0 -505 285 0 285 0
0 505 0 505 135 0 135 0 0 195 0 195 -135 0 -135 0 0 58 c0 113 52 162 170
161 36 0 86 -4 112 -8 l46 -8 31 161 c17 88 29 161 28 162 -1 1 -49 7 -107 14
-169 18 -434 22 -515 6z" fill="#A65A2E"/>
<path d="M5715 1976 c-96 -18 -182 -64 -238 -126 -63 -70 -87 -148 -94 -302
l-6 -118 -108 0 -109 0 0 -195 0 -195 110 0 110 0 0 -505 0 -505 285 0 285 0
0 505 0 505 135 0 135 0 0 195 0 195 -135 0 -135 0 0 58 c0 113 52 162 170
161 36 0 86 -4 112 -8 l46 -8 31 161 c17 88 29 161 28 162 -1 1 -49 7 -107 14
-169 18 -434 22 -515 6z" fill="#A65A2E"/>
<path d="M2885 1450 c-338 -48 -585 -250 -662 -540 -23 -89 -23 -281 1 -370
67 -246 268 -434 544 -507 86 -23 118 -26 277 -27 185 -1 238 6 365 46 123 39
199 86 296 182 76 75 98 106 132 176 56 116 76 223 70 364 -16 338 -235 584
-588 661 -87 19 -346 28 -435 15z m292 -378 c57 -30 120 -105 138 -166 36
-117 28 -302 -17 -394 -48 -100 -126 -147 -243 -147 -69 0 -86 4 -126 27 -90
53 -131 123 -149 256 -14 103 1 224 36 299 30 63 92 118 154 138 60 20 154 13
207 -13z" fill="#A65A2E"/>
<path d="M7055 1453 c-295 -38 -510 -174 -616 -388 -49 -100 -69 -175 -76
-290 -9 -152 27 -311 99 -433 50 -85 170 -201 253 -244 142 -74 327 -104 580
-95 312 12 493 79 635 234 52 57 122 154 116 160 -2 2 -126 15 -276 28 l-273
25 -44 -41 c-137 -126 -353 -116 -453 23 -27 37 -36 59 -56 141 l-6 27 572 0
573 0 -6 138 c-9 235 -64 372 -201 507 -124 123 -258 180 -480 204 -90 10
-276 13 -341 4z m313 -348 c28 -15 63 -45 77 -65 28 -40 55 -118 55 -157 l0
-23 -280 0 -280 0 6 28 c28 126 90 207 180 236 75 24 178 16 242 -19z" fill="#A65A2E"/>
<path d="M8965 1453 c-295 -38 -510 -174 -616 -388 -49 -100 -69 -175 -76
-290 -9 -152 27 -311 99 -433 50 -85 170 -201 253 -244 142 -74 327 -104 580
-95 312 12 493 79 635 234 52 57 122 154 116 160 -2 2 -126 15 -276 28 l-273
25 -44 -41 c-137 -126 -353 -116 -453 23 -27 37 -36 59 -56 141 l-6 27 572 0
573 0 -6 138 c-9 235 -64 372 -201 507 -124 123 -258 180 -480 204 -90 10
-276 13 -341 4z m313 -348 c28 -15 63 -45 77 -65 28 -40 55 -118 55 -157 l0
-23 -280 0 -280 0 6 28 c28 126 90 207 180 236 75 24 178 16 242 -19z" fill="#A65A2E"/>
</g>
</svg>
