<?xml version="1.0" standalone="no"?>
<!DOCTYPE svg PUBLIC "-//W3C//DTD SVG 20010904//EN"
 "http://www.w3.org/TR/2001/REC-SVG-20010904/DTD/svg10.dtd">
<svg version="1.0" xmlns="http://www.w3.org/2000/svg"
 width="512.000000pt" height="512.000000pt" viewBox="0 0 512.000000 512.000000"
 preserveAspectRatio="xMidYMid meet">

<g transform="translate(0.000000,512.000000) scale(0.100000,-0.100000)"
fill="#000000" stroke="none">
<path d="M2369 4386 c-247 -87 -440 -306 -543 -616 -49 -150 -69 -278 -69
-450 0 -172 20 -300 69 -450 91 -273 253 -478 459 -581 75 -37 188 -70 200
-58 3 3 -6 37 -19 75 -84 240 -122 526 -97 719 16 120 51 220 116 335 85 151
100 212 100 415 0 140 -4 189 -24 280 -29 138 -99 355 -115 355 -6 0 -41 -11
-77 -24z" fill="#3D5928"/>
<path d="M2644 4395 c21 -56 69 -227 88 -315 19 -89 22 -135 22 -305 0 -190
-1 -205 -28 -290 -15 -49 -43 -119 -63 -155 -113 -205 -128 -258 -127 -455 1
-170 25 -307 91 -507 51 -156 38 -147 149 -107 275 102 500 421 570 809 23
128 23 372 0 500 -74 410 -318 737 -615 824 -70 21 -95 21 -87 1z" fill="#3D5928"/>
<path d="M1000 2631 c-109 -16 -227 -60 -303 -114 l-29 -20 119 -61 c271 -140
455 -294 575 -481 58 -90 81 -144 112 -260 28 -104 49 -151 106 -235 35 -52
148 -168 215 -222 119 -97 428 -266 450 -248 19 16 73 139 91 210 21 79 24
267 5 355 -112 518 -554 962 -1057 1064 -73 15 -220 21 -284 12z" fill="#3D5928"/>
<path d="M3905 2630 c-162 -21 -374 -105 -527 -208 -443 -301 -696 -828 -592
-1229 17 -67 71 -188 90 -204 18 -15 199 76 334 166 250 167 378 325 434 535
50 187 131 317 289 466 109 102 258 204 411 281 l110 55 -24 20 c-111 90 -339
141 -525 118z" fill="#3D5928"/>
<path d="M523 2328 c-201 -345 -64 -877 318 -1243 259 -248 546 -376 843 -376
160 0 316 46 406 119 l24 20 -84 42 c-175 88 -338 201 -458 318 -135 133 -214
264 -259 430 -14 53 -40 127 -58 163 -94 186 -294 359 -580 500 -65 32 -122
59 -126 59 -4 0 -16 -15 -26 -32z" fill="#3D5928"/>
<path d="M4454 2300 c-283 -139 -501 -325 -593 -507 -11 -23 -35 -90 -52 -150
-17 -59 -49 -142 -70 -183 -106 -206 -329 -405 -627 -563 l-104 -55 29 -19
c53 -38 135 -74 211 -94 89 -23 255 -27 354 -9 394 72 777 374 968 763 87 177
113 283 114 467 1 110 -3 160 -17 209 -17 61 -73 187 -87 196 -3 2 -60 -23
-126 -55z" fill="#3D5928"/>
</g>
</svg>
