<?xml version="1.0" standalone="no"?>
<!DOCTYPE svg PUBLIC "-//W3C//DTD SVG 20010904//EN"
 "http://www.w3.org/TR/2001/REC-SVG-20010904/DTD/svg10.dtd">
<svg version="1.0" xmlns="http://www.w3.org/2000/svg"
 width="512.000000pt" height="512.000000pt" viewBox="0 0 512.000000 512.000000"
 preserveAspectRatio="xMidYMid meet">

<g transform="translate(0.000000,512.000000) scale(0.100000,-0.100000)"
fill="#000000" stroke="none">
<path d="M2595 5004 c-533 -12 -998 -23 -1032 -23 -104 -2 -103 2 -103 -270
l0 -228 -149 -694 c-172 -799 -165 -768 -188 -919 -15 -102 -17 -252 -20
-1322 -4 -1206 -4 -1207 17 -1228 11 -11 32 -20 48 -20 15 0 502 -47 1082
-104 580 -57 1060 -100 1065 -96 6 4 154 53 330 110 176 56 327 108 335 116
13 13 15 147 18 1067 2 620 -1 1128 -7 1237 -9 163 -28 293 -151 1044 l-140
859 0 233 c0 229 0 233 -22 248 -13 10 -41 15 -68 15 -25 -1 -481 -12 -1015
-25z m1005 -263 l0 -159 -72 -6 c-105 -8 -1942 -54 -1950 -49 -5 2 -8 76 -8
164 0 119 3 161 13 164 13 4 1592 41 1860 44 l157 1 0 -159z m-20 -292 c0 -5
-72 -405 -160 -887 -88 -482 -165 -926 -170 -987 -6 -63 -10 -587 -10 -1232 0
-762 -3 -1123 -10 -1123 -10 0 -1241 117 -1739 165 -140 14 -259 25 -263 25
-5 0 -7 532 -5 1188 3 1083 5 1196 21 1294 10 59 86 423 169 810 l152 703 45
7 c25 4 430 16 900 26 1101 24 1070 24 1070 11z m192 -979 l112 -675 3 -1197
4 -1197 -113 -35 c-62 -19 -182 -57 -266 -85 l-153 -49 3 1202 3 1201 143 762
c78 420 143 766 143 770 2 16 11 -32 121 -697z" fill="#3D5928"/>
<path d="M2030 2756 c-155 -34 -256 -89 -370 -205 -130 -132 -187 -246 -210
-423 -21 -161 21 -347 111 -485 63 -96 182 -202 281 -251 120 -59 192 -76 328
-76 135 -1 207 16 325 73 261 129 420 401 402 691 -7 115 -27 191 -75 288 -88
177 -246 309 -447 371 -90 29 -254 36 -345 17z m280 -112 c217 -50 397 -227
455 -444 19 -73 19 -226 -1 -303 -28 -109 -79 -195 -168 -282 -89 -88 -166
-133 -277 -161 -87 -22 -260 -15 -342 15 -140 50 -275 165 -339 287 -61 118
-73 166 -73 294 0 122 12 173 63 275 82 164 263 298 442 328 59 10 180 6 240
-9z" fill="#3D5928"/>
<path d="M2280 2444 c-211 -76 -430 -395 -430 -626 0 -119 41 -175 134 -185
51 -5 64 -2 132 32 122 60 244 196 332 371 60 118 80 268 46 340 -34 72 -124
101 -214 68z m-116 -316 c-178 -262 -196 -289 -202 -283 -3 2 7 42 21 87 45
143 157 298 266 369 25 16 47 29 49 29 2 0 -59 -91 -134 -202z m222 80 c-10
-64 -97 -235 -153 -301 -49 -56 -156 -147 -175 -147 -5 0 48 84 118 188 166
243 207 302 212 302 3 0 2 -19 -2 -42z" fill="#3D5928"/>
</g>
</svg>
